<svg width="48" height="28" viewBox="0 0 48 28" fill="none" xmlns="http://www.w3.org/2000/svg">
<path d="M23.3327 24.5V22.1667C23.3327 20.929 22.841 19.742 21.9658 18.8668C21.0907 17.9917 19.9037 17.5 18.666 17.5H9.33268C8.09501 17.5 6.90802 17.9917 6.03285 18.8668C5.15768 19.742 4.66602 20.929 4.66602 22.1667V24.5" stroke="#6E39C3" stroke-width="2.4" stroke-linecap="round" stroke-linejoin="round"/>
<path d="M13.9997 12.8333C16.577 12.8333 18.6663 10.744 18.6663 8.16667C18.6663 5.58934 16.577 3.5 13.9997 3.5C11.4223 3.5 9.33301 5.58934 9.33301 8.16667C9.33301 10.744 11.4223 12.8333 13.9997 12.8333Z" stroke="#6E39C3" stroke-width="2.4" stroke-linecap="round" stroke-linejoin="round"/>
<path d="M40.704 11.6779C40.5088 11.4839 40.2448 11.375 39.9696 11.375C39.6944 11.375 39.4304 11.4839 39.2352 11.6779L35.4956 15.3654L31.8081 11.6779C31.613 11.4839 31.3489 11.375 31.0737 11.375C30.7986 11.375 30.5345 11.4839 30.3394 11.6779C30.2417 11.7747 30.1642 11.89 30.1114 12.0169C30.0585 12.1438 30.0312 12.28 30.0312 12.4175C30.0312 12.555 30.0585 12.6912 30.1114 12.8181C30.1642 12.945 30.2417 13.0602 30.3394 13.1571L34.756 17.5737C34.8529 17.6714 34.9681 17.7489 35.095 17.8018C35.222 17.8546 35.3581 17.8819 35.4956 17.8819C35.6331 17.8819 35.7693 17.8546 35.8962 17.8018C36.0232 17.7489 36.1384 17.6714 36.2352 17.5737L40.704 13.1571C40.8016 13.0602 40.8791 12.945 40.932 12.8181C40.9849 12.6912 41.0121 12.555 41.0121 12.4175C41.0121 12.28 40.9849 12.1438 40.932 12.0169C40.8791 11.89 40.8016 11.7747 40.704 11.6779Z" fill="#6E39C3"/>
</svg>
